<svg width="1259" height="273" viewBox="0 0 1259 273" fill="none" xmlns="http://www.w3.org/2000/svg">
<line x1="5.00001" y1="272.487" x2="5" y2="45.0001" stroke="black" stroke-width="10"/>
<line x1="3.42293" y1="41.3553" x2="117.153" y2="148.166" stroke="black" stroke-width="10"/>
<line x1="37.2085" y1="120.084" x2="140.938" y2="226.895" stroke="black" stroke-width="10"/>
<line x1="110.169" y1="148.301" x2="215.439" y2="41.4902" stroke="black" stroke-width="10"/>
<line x1="110.343" y1="201.538" x2="224.613" y2="96.3218" stroke="black" stroke-width="10"/>
<circle cx="150.662" cy="235.662" r="10.6622" stroke="black" stroke-width="10"/>
<line x1="222.459" y1="98.4055" x2="222.459" y2="272.487" stroke="black" stroke-width="10"/>
<path d="M507.8 81.6V220H489.6V116.8L443.6 220H430.8L384.6 116.6V220H366.4V81.6H386L437.2 196L488.4 81.6H507.8ZM556.866 80.6V220H538.666V80.6H556.866ZM697.484 220H679.284L606.084 109V220H587.884V80.4H606.084L679.284 191.2V80.4H697.484V220ZM746.709 95.4V142H797.509V157H746.709V205H803.509V220H728.509V80.4H803.509V95.4H746.709ZM849.248 80.6V220H831.048V80.6H849.248ZM924.467 221.4C915.267 221.4 907.001 219.8 899.667 216.6C892.467 213.267 886.801 208.733 882.667 203C878.534 197.133 876.401 190.4 876.267 182.8H895.667C896.334 189.333 899.001 194.867 903.667 199.4C908.467 203.8 915.401 206 924.467 206C933.134 206 939.934 203.867 944.867 199.6C949.934 195.2 952.467 189.6 952.467 182.8C952.467 177.467 951.001 173.133 948.067 169.8C945.134 166.467 941.467 163.933 937.067 162.2C932.667 160.467 926.734 158.6 919.267 156.6C910.067 154.2 902.667 151.8 897.067 149.4C891.601 147 886.867 143.267 882.867 138.2C879.001 133 877.067 126.067 877.067 117.4C877.067 109.8 879.001 103.067 882.867 97.2C886.734 91.3333 892.134 86.8 899.067 83.6C906.134 80.4 914.201 78.8 923.267 78.8C936.334 78.8 947.001 82.0667 955.267 88.6C963.667 95.1333 968.401 103.8 969.467 114.6H949.467C948.801 109.267 946.001 104.6 941.067 100.6C936.134 96.4667 929.601 94.4 921.467 94.4C913.867 94.4 907.667 96.4 902.867 100.4C898.067 104.267 895.667 109.733 895.667 116.8C895.667 121.867 897.067 126 899.867 129.2C902.801 132.4 906.334 134.867 910.467 136.6C914.734 138.2 920.667 140.067 928.267 142.2C937.467 144.733 944.867 147.267 950.467 149.8C956.067 152.2 960.867 156 964.867 161.2C968.867 166.267 970.867 173.2 970.867 182C970.867 188.8 969.067 195.2 965.467 201.2C961.867 207.2 956.534 212.067 949.467 215.8C942.401 219.533 934.067 221.4 924.467 221.4ZM1083.45 80.6V95.4H1045.45V220H1027.25V95.4H989.05V80.6H1083.45Z" fill="black" fill-opacity="0.75"/>
</svg>
