<svg width="1203" height="273" viewBox="0 0 1203 273" fill="none" xmlns="http://www.w3.org/2000/svg">
<line x1="5.00001" y1="272.487" x2="5" y2="45.0001" stroke="black" stroke-width="10"/>
<line x1="3.42293" y1="41.3553" x2="117.153" y2="148.166" stroke="black" stroke-width="10"/>
<line x1="37.2085" y1="120.084" x2="140.938" y2="226.895" stroke="black" stroke-width="10"/>
<line x1="110.169" y1="148.301" x2="215.439" y2="41.4902" stroke="black" stroke-width="10"/>
<line x1="110.343" y1="201.538" x2="224.613" y2="96.3218" stroke="black" stroke-width="10"/>
<circle cx="149.419" cy="240.392" r="10.6622" stroke="black" stroke-width="10"/>
<line x1="222.459" y1="98.4055" x2="222.459" y2="272.487" stroke="black" stroke-width="10"/>
<path d="M503.6 82V220H489.6V109.8L440.4 220H430.2L381 110.2V220H367V82H381.8L435.2 201.6L488.6 82H503.6ZM549.359 80.2V220H535.359V80.2H549.359ZM686.463 220H672.463L595.063 102.4V220H581.063V80.2H595.063L672.463 197.6V80.2H686.463V220ZM732.172 91.6V143.8H785.172V155.4H732.172V208.4H791.172V220H718.172V80H791.172V91.6H732.172ZM893.158 220L858.558 161.6H832.758V220H818.758V80.2H860.758C876.358 80.2 888.158 83.9333 896.158 91.4C904.291 98.8667 908.358 108.667 908.358 120.8C908.358 130.933 905.424 139.6 899.558 146.8C893.824 153.867 885.291 158.467 873.958 160.6L909.958 220H893.158ZM832.758 150.2H860.958C871.891 150.2 880.091 147.533 885.558 142.2C891.158 136.867 893.958 129.733 893.958 120.8C893.958 111.6 891.291 104.533 885.958 99.6C880.624 94.5333 872.224 92 860.758 92H832.758V150.2ZM950.141 80.2V220H936.141V80.2H950.141ZM1024.24 221.4C1015.04 221.4 1006.91 219.8 999.844 216.6C992.91 213.4 987.444 208.933 983.444 203.2C979.444 197.467 977.31 191.067 977.044 184H991.844C992.51 190.8 995.51 196.8 1000.84 202C1006.18 207.067 1013.98 209.6 1024.24 209.6C1033.71 209.6 1041.18 207.2 1046.64 202.4C1052.24 197.467 1055.04 191.267 1055.04 183.8C1055.04 177.8 1053.51 173 1050.44 169.4C1047.38 165.667 1043.58 162.933 1039.04 161.2C1034.51 159.333 1028.24 157.333 1020.24 155.2C1010.91 152.667 1003.51 150.2 998.044 147.8C992.577 145.4 987.91 141.667 984.044 136.6C980.177 131.533 978.244 124.667 978.244 116C978.244 108.8 980.11 102.4 983.844 96.8C987.577 91.0667 992.844 86.6 999.644 83.4C1006.44 80.2 1014.24 78.6 1023.04 78.6C1035.98 78.6 1046.38 81.8 1054.24 88.2C1062.24 94.4667 1066.84 102.6 1068.04 112.6H1052.84C1051.91 106.867 1048.78 101.8 1043.44 97.4C1038.11 92.8667 1030.91 90.6 1021.84 90.6C1013.44 90.6 1006.44 92.8667 1000.84 97.4C995.244 101.8 992.444 107.867 992.444 115.6C992.444 121.467 993.977 126.2 997.044 129.8C1000.11 133.4 1003.91 136.133 1008.44 138C1013.11 139.867 1019.38 141.867 1027.24 144C1036.31 146.533 1043.64 149.067 1049.24 151.6C1054.84 154 1059.58 157.733 1063.44 162.8C1067.31 167.867 1069.24 174.667 1069.24 183.2C1069.24 189.733 1067.51 195.933 1064.04 201.8C1060.58 207.667 1055.44 212.4 1048.64 216C1041.84 219.6 1033.71 221.4 1024.24 221.4ZM1178.1 80.2V91.8H1139.3V220H1125.3V91.8H1086.3V80.2H1178.1Z" fill="black" fill-opacity="0.75"/>
</svg>
