<svg width="1200" height="273" viewBox="0 0 1200 273" fill="none" xmlns="http://www.w3.org/2000/svg">
<line x1="3.50001" y1="272.487" x2="3.5" y2="45.0001" stroke="black" stroke-width="7"/>
<line x1="6.47581" y1="42.5261" x2="113.206" y2="149.337" stroke="black" stroke-width="7"/>
<line x1="33.1325" y1="121.129" x2="136.862" y2="227.94" stroke="black" stroke-width="7"/>
<line x1="108.237" y1="149.354" x2="213.507" y2="42.5431" stroke="black" stroke-width="7"/>
<line x1="108.267" y1="202.729" x2="215.537" y2="96.5129" stroke="black" stroke-width="7"/>
<circle cx="146.419" cy="240.392" r="12.1622" stroke="black" stroke-width="7"/>
<line x1="217.959" y1="98.4055" x2="217.959" y2="272.487" stroke="black" stroke-width="7"/>
<path d="M500.6 82V220H486.6V109.8L437.4 220H427.2L378 110.2V220H364V82H378.8L432.2 201.6L485.6 82H500.6ZM546.359 80.2V220H532.359V80.2H546.359ZM683.463 220H669.463L592.063 102.4V220H578.063V80.2H592.063L669.463 197.6V80.2H683.463V220ZM729.172 91.6V143.8H782.172V155.4H729.172V208.4H788.172V220H715.172V80H788.172V91.6H729.172ZM890.158 220L855.558 161.6H829.758V220H815.758V80.2H857.758C873.358 80.2 885.158 83.9333 893.158 91.4C901.291 98.8667 905.358 108.667 905.358 120.8C905.358 130.933 902.424 139.6 896.558 146.8C890.824 153.867 882.291 158.467 870.958 160.6L906.958 220H890.158ZM829.758 150.2H857.958C868.891 150.2 877.091 147.533 882.558 142.2C888.158 136.867 890.958 129.733 890.958 120.8C890.958 111.6 888.291 104.533 882.958 99.6C877.624 94.5333 869.224 92 857.758 92H829.758V150.2ZM947.141 80.2V220H933.141V80.2H947.141ZM1021.24 221.4C1012.04 221.4 1003.91 219.8 996.844 216.6C989.91 213.4 984.444 208.933 980.444 203.2C976.444 197.467 974.31 191.067 974.044 184H988.844C989.51 190.8 992.51 196.8 997.844 202C1003.18 207.067 1010.98 209.6 1021.24 209.6C1030.71 209.6 1038.18 207.2 1043.64 202.4C1049.24 197.467 1052.04 191.267 1052.04 183.8C1052.04 177.8 1050.51 173 1047.44 169.4C1044.38 165.667 1040.58 162.933 1036.04 161.2C1031.51 159.333 1025.24 157.333 1017.24 155.2C1007.91 152.667 1000.51 150.2 995.044 147.8C989.577 145.4 984.91 141.667 981.044 136.6C977.177 131.533 975.244 124.667 975.244 116C975.244 108.8 977.11 102.4 980.844 96.8C984.577 91.0667 989.844 86.6 996.644 83.4C1003.44 80.2 1011.24 78.6 1020.04 78.6C1032.98 78.6 1043.38 81.8 1051.24 88.2C1059.24 94.4667 1063.84 102.6 1065.04 112.6H1049.84C1048.91 106.867 1045.78 101.8 1040.44 97.4C1035.11 92.8667 1027.91 90.6 1018.84 90.6C1010.44 90.6 1003.44 92.8667 997.844 97.4C992.244 101.8 989.444 107.867 989.444 115.6C989.444 121.467 990.977 126.2 994.044 129.8C997.11 133.4 1000.91 136.133 1005.44 138C1010.11 139.867 1016.38 141.867 1024.24 144C1033.31 146.533 1040.64 149.067 1046.24 151.6C1051.84 154 1056.58 157.733 1060.44 162.8C1064.31 167.867 1066.24 174.667 1066.24 183.2C1066.24 189.733 1064.51 195.933 1061.04 201.8C1057.58 207.667 1052.44 212.4 1045.64 216C1038.84 219.6 1030.71 221.4 1021.24 221.4ZM1175.1 80.2V91.8H1136.3V220H1122.3V91.8H1083.3V80.2H1175.1Z" fill="black" fill-opacity="0.75"/>
</svg>
